<svg xmlns="http://www.w3.org/2000/svg" width="64" height="47.291" viewBox="0 0 64 47.291">
  <path id="analyze" d="M69,18.934a.984.984,0,0,0-.083-.4,1.505,1.505,0,0,0-.213-.32l-.095-.071a.711.711,0,0,0-.249-.166l-.107-.059a1.185,1.185,0,0,0-.439-.166H63.072a1.185,1.185,0,0,0,0,2.37h1.884l-5.44,5.416a4.575,4.575,0,0,0-4.741,0L49.36,20.12a4.741,4.741,0,1,0-7.253,1.09l-1.9,3.555a14.222,14.222,0,0,0-17.433,5.381,4.042,4.042,0,0,0,0-.545,4.741,4.741,0,1,0-8.58,2.75L5.273,43.017A1.2,1.2,0,1,0,7.1,44.581L16.01,33.915a4.646,4.646,0,0,0,5.274-.83,14.08,14.08,0,0,0-.877,4.812A14.222,14.222,0,0,0,42.534,49.748a5.308,5.308,0,0,0-.071.758,4.646,4.646,0,0,0,1.387,3.342l5,5a4.76,4.76,0,0,0,6.732-6.732l-5.037-5.025A4.646,4.646,0,0,0,47.2,45.707a5.308,5.308,0,0,0-.758.071A14.222,14.222,0,0,0,42.3,25.915L44.2,22.359a4.48,4.48,0,0,0,3.461-.545l5.416,5.416a4.741,4.741,0,1,0,8.13,0l5.416-5.44v1.884a1.185,1.185,0,0,0,2.37,0ZM34.629,26.045a11.911,11.911,0,0,1,4.468.877l-2.24,4.231a6.921,6.921,0,0,0-2.228-.367A7.111,7.111,0,0,0,28.9,33.7l-4.278-2.133A11.851,11.851,0,0,1,34.629,26.045Zm0,7.111A4.741,4.741,0,1,1,29.888,37.9,4.741,4.741,0,0,1,34.629,33.156ZM18.037,31.971a2.37,2.37,0,1,1,2.37-2.37A2.37,2.37,0,0,1,18.037,31.971ZM48.851,48.788l5.025,5.025a2.372,2.372,0,1,1-3.354,3.354l-5-5.049a2.37,2.37,0,0,1,3.33-3.33ZM46.48,37.9A11.851,11.851,0,1,1,23.56,33.689l4.267,2.121a7.116,7.116,0,1,0,11.129-3.544l2.24-4.231A11.851,11.851,0,0,1,46.48,37.9ZM42.925,17.749a2.363,2.363,0,1,1,2.37,2.37A2.37,2.37,0,0,1,42.925,17.749ZM57.147,31.971a2.363,2.363,0,1,1,2.37-2.37A2.37,2.37,0,0,1,57.147,31.971Z" transform="translate(-4.998 -12.953)" fill="#0b2ff7"/>
</svg>
