<svg xmlns="http://www.w3.org/2000/svg" width="41.66" height="41.507" viewBox="0 0 41.66 41.507">
  <g id="question-chat-bubble" transform="translate(0.5 0.38)">
    <path id="Path_14622" data-name="Path 14622" d="M17.045,32.571A17.557,17.557,0,0,1,8,30.1L1.156,32.444A.754.754,0,0,1,.4,32.285a.765.765,0,0,1-.222-.756L2.3,24.5A15.657,15.657,0,0,1,0,16.346C0,7.4,7.649.12,17.045.12S34.084,7.4,34.084,16.346,26.441,32.571,17.045,32.571ZM8.081,28.8a.586.586,0,0,1,.324.1,16.343,16.343,0,0,0,8.64,2.44c8.716,0,15.806-6.728,15.806-14.993S25.762,1.352,17.045,1.352,1.232,8.08,1.232,16.346a14.36,14.36,0,0,0,2.262,7.725.623.623,0,0,1,.07.508l-1.931,6.4,6.251-2.141A.709.709,0,0,1,8.081,28.8ZM.762,31.275c-.006,0-.006,0-.013.006Z" transform="translate(0)" fill="#ef9c17" stroke="#ef9c17" stroke-width="1"/>
    <path id="Path_14623" data-name="Path 14623" d="M27.89,46.711A16.987,16.987,0,0,1,11.759,35.72a.617.617,0,0,1,1.163-.413A15.741,15.741,0,0,0,27.89,45.478a16.343,16.343,0,0,0,8.64-2.44.616.616,0,0,1,.527-.057l6.251,2.141-1.931-6.4a.623.623,0,0,1,.07-.508,14.381,14.381,0,0,0,2.262-7.732,14.771,14.771,0,0,0-7.154-12.541A.618.618,0,1,1,37.21,16.9a16.007,16.007,0,0,1,7.725,13.589,15.64,15.64,0,0,1-2.3,8.151l2.116,7.014a.769.769,0,0,1-.216.775.751.751,0,0,1-.762.159L36.93,44.239A17.557,17.557,0,0,1,27.89,46.711Zm15.673-.724Zm.6-.572.013.006C44.172,45.421,44.172,45.421,44.166,45.415Z" transform="translate(-4.275 -6.084)" fill="#ef9c17" stroke="#ef9c17" stroke-width="1"/>
    <path id="Path_14624" data-name="Path 14624" d="M23.7,28.8a1.56,1.56,0,1,1,1.556-1.556A1.559,1.559,0,0,1,23.7,28.8Zm0-1.887a.33.33,0,1,0,.33.33A.328.328,0,0,0,23.7,26.91Zm.133-2.1a.613.613,0,0,1-.616-.616V21.542a2.9,2.9,0,0,1,1.753-2.649,4.453,4.453,0,0,0,2.573-2.637c.724-2.141.349-3.805-1.093-4.981a4.421,4.421,0,0,0-5.114-.33,4.025,4.025,0,0,0-1.842,3.38.614.614,0,0,1-1.226.057A5.256,5.256,0,0,1,20.677,9.9a5.676,5.676,0,0,1,6.556.419c1.3,1.055,2.6,3,1.487,6.3a5.665,5.665,0,0,1-3.253,3.405,1.681,1.681,0,0,0-1.016,1.525V24.2A.616.616,0,0,1,23.834,24.814Z" transform="translate(-6.662 -3.259)" fill="#ef9c17" stroke="#ef9c17" stroke-width="1"/>
  </g>
</svg>
