<svg xmlns="http://www.w3.org/2000/svg" width="55.5" height="55.5" viewBox="0 0 55.5 55.5">
  <g id="Layer_2" data-name="Layer 2" transform="translate(-0.5 -0.5)">
    <path id="Path_14633" data-name="Path 14633" d="M38.3,55.25H8.157A6.912,6.912,0,0,1,1.25,48.343V8.157A6.912,6.912,0,0,1,8.157,1.25H38.3A6.912,6.912,0,0,1,45.2,8.157V28.5a1.884,1.884,0,0,1-3.767,0V8.157a3.145,3.145,0,0,0-3.14-3.14H8.157a3.145,3.145,0,0,0-3.14,3.14V48.343a3.145,3.145,0,0,0,3.14,3.14H38.3a2.381,2.381,0,0,0,.575-.053A1.919,1.919,0,0,1,41.2,53.266a1.874,1.874,0,0,1-1.615,1.866,6.332,6.332,0,0,1-1.286.118Z" transform="translate(0 0)" fill="#ed2f59" stroke="#fff" stroke-width="1.5"/>
    <path id="Path_14634" data-name="Path 14634" d="M24.715,10.017H7.134a1.884,1.884,0,1,1,0-3.767H24.715a1.884,1.884,0,1,1,0,3.767ZM19.692,20.064H7.134a1.884,1.884,0,1,1,0-3.767H19.692a1.884,1.884,0,0,1,0,3.767ZM33.506,37.645a1.869,1.869,0,0,1-1.331-.553l-2.512-2.512a1.884,1.884,0,1,1,2.662-2.662l1.18,1.178,3.692-3.69A1.884,1.884,0,1,1,39.86,32.07l-5.023,5.023a1.869,1.869,0,0,1-1.331.553Z" transform="translate(6.047 7.558)" fill="#ed2f59" stroke="#fff" stroke-width="1.5"/>
    <path id="Path_14632" data-name="Path 14632" d="M25.692,40.134A14.442,14.442,0,1,1,40.134,25.692,14.442,14.442,0,0,1,25.692,40.134Zm0-25.116A10.674,10.674,0,1,0,36.366,25.692,10.674,10.674,0,0,0,25.692,15.017Z" transform="translate(15.116 15.116)" fill="#ed2f59" stroke="#fff" stroke-width="1.5"/>
  </g>
</svg>
